<svg width="170" height="170" viewBox="0 0 170 170" fill="none" xmlns="http://www.w3.org/2000/svg">
<path d="M137.344 40.262L123.872 52.4814C123.504 52.8151 123.025 53 122.528 53H48.1791C47.6751 53 47.1898 52.8097 46.82 52.4673L33.6409 40.2603C33.2323 39.8818 33 39.35 33 38.793V15C33 13.8954 33.8954 13 35 13H54.1C55.2046 13 56.1 13.8954 56.1 15V19.3333C56.1 20.4379 56.9954 21.3333 58.1 21.3333H73C74.1046 21.3333 75 20.4379 75 19.3333V15C75 13.8954 75.8954 13 77 13H94C95.1046 13 96 13.8954 96 15V19.3333C96 20.4379 96.8954 21.3333 98 21.3333H112.9C114.005 21.3333 114.9 20.4379 114.9 19.3333V15C114.9 13.8954 115.795 13 116.9 13H136C137.105 13 138 13.8954 138 15V38.7806C138 39.3449 137.762 39.8829 137.344 40.262Z" fill="#2DBA4B" stroke="#2DBA4B"/>
<path d="M31.6969 140.086L47.5359 126.483C47.8986 126.171 48.3609 126 48.839 126H123.193C123.693 126 124.175 126.187 124.544 126.525L139.351 140.09C139.765 140.468 140 141.004 140 141.564V155C140 156.105 139.105 157 138 157H33C31.8954 157 31 156.105 31 155V141.603C31 141.02 31.2545 140.466 31.6969 140.086Z" fill="#2DBA4B" stroke="#2DBA4B"/>
<g filter="url(#filter0_d_2_2)">
<path d="M48 133V49.4848V35C48 33.8954 48.8954 33 50 33H101.611C102.064 33 102.503 33.1536 102.857 33.4358L122.246 48.8843C122.723 49.2638 123 49.8396 123 50.4485V133C123 134.105 122.105 135 121 135H50C48.8954 135 48 134.105 48 133Z" fill="#2DBA4B"/>
<path d="M48 133V49.4848V35C48 33.8954 48.8954 33 50 33H101.611C102.064 33 102.503 33.1536 102.857 33.4358L122.246 48.8843C122.723 49.2638 123 49.8396 123 50.4485V133C123 134.105 122.105 135 121 135H50C48.8954 135 48 134.105 48 133Z" stroke="#2DBA4B"/>
</g>
<path d="M82.384 108.8V103.04H88.912V108.8H82.384ZM82.384 70.448V64.688H88.912V70.448H82.384ZM85.696 104.72C83.216 104.72 81 104.264 79.048 103.352C77.096 102.424 75.504 101.12 74.272 99.44C73.04 97.744 72.256 95.744 71.92 93.44L78.4 92.432C78.832 94.32 79.736 95.824 81.112 96.944C82.504 98.064 84.16 98.624 86.08 98.624C87.888 98.624 89.384 98.2 90.568 97.352C91.768 96.504 92.368 95.456 92.368 94.208C92.368 93.36 92.104 92.664 91.576 92.12C91.064 91.56 90.256 91.104 89.152 90.752L80.608 88.112C75.68 86.592 73.216 83.584 73.216 79.088C73.216 76.976 73.712 75.144 74.704 73.592C75.712 72.04 77.128 70.848 78.952 70.016C80.792 69.168 82.96 68.752 85.456 68.768C87.744 68.8 89.776 69.216 91.552 70.016C93.328 70.8 94.808 71.944 95.992 73.448C97.192 74.936 98.064 76.752 98.608 78.896L91.888 80.096C91.664 79.072 91.248 78.176 90.64 77.408C90.032 76.624 89.272 76.016 88.36 75.584C87.464 75.136 86.464 74.896 85.36 74.864C84.304 74.832 83.344 74.984 82.48 75.32C81.632 75.656 80.952 76.128 80.44 76.736C79.944 77.328 79.696 78 79.696 78.752C79.696 79.584 80.048 80.304 80.752 80.912C81.456 81.504 82.576 82.016 84.112 82.448L90.208 84.176C93.264 85.056 95.464 86.248 96.808 87.752C98.168 89.256 98.848 91.248 98.848 93.728C98.848 95.904 98.296 97.816 97.192 99.464C96.088 101.112 94.544 102.4 92.56 103.328C90.592 104.256 88.304 104.72 85.696 104.72Z" fill="white"/>
<defs>
<filter id="filter0_d_2_2" x="33.8" y="18.8" width="103.4" height="130.4" filterUnits="userSpaceOnUse" color-interpolation-filters="sRGB">
<feFlood flood-opacity="0" result="BackgroundImageFix"/>
<feColorMatrix in="SourceAlpha" type="matrix" values="0 0 0 0 0 0 0 0 0 0 0 0 0 0 0 0 0 0 127 0" result="hardAlpha"/>
<feOffset/>
<feGaussianBlur stdDeviation="6.85"/>
<feComposite in2="hardAlpha" operator="out"/>
<feColorMatrix type="matrix" values="0 0 0 0 0 0 0 0 0 0 0 0 0 0 0 0 0 0 0.31 0"/>
<feBlend mode="normal" in2="BackgroundImageFix" result="effect1_dropShadow_2_2"/>
<feBlend mode="normal" in="SourceGraphic" in2="effect1_dropShadow_2_2" result="shape"/>
</filter>
</defs>
</svg>
